<?xml version="1.0" encoding="UTF-8" standalone="no"?>
<svg
   xmlns:dc="http://purl.org/dc/elements/1.1/"
   xmlns:cc="http://creativecommons.org/ns#"
   xmlns:rdf="http://www.w3.org/1999/02/22-rdf-syntax-ns#"
   xmlns:svg="http://www.w3.org/2000/svg"
   xmlns="http://www.w3.org/2000/svg"
   xmlns:sodipodi="http://sodipodi.sourceforge.net/DTD/sodipodi-0.dtd"
   xmlns:inkscape="http://www.inkscape.org/namespaces/inkscape"
   width="2150"
   height="700"
   viewBox="0 0 568.85415 185.20834"
   version="1.1"
   id="svg8"
   inkscape:version="1.0.2-2 (e86c870879, 2021-01-15)"
   sodipodi:docname="onup.svg">
  <defs
     id="defs2" />
  <sodipodi:namedview
     id="base"
     pagecolor="#808080"
     bordercolor="#ffffff"
     borderopacity="1"
     inkscape:pageopacity="0"
     inkscape:pageshadow="2"
     inkscape:zoom="0.31491654"
     inkscape:cx="1011.6956"
     inkscape:cy="295.95932"
     inkscape:document-units="px"
     inkscape:current-layer="layer1"
     inkscape:document-rotation="0"
     showgrid="false"
     units="px"
     inkscape:pagecheckerboard="true"
     inkscape:showpageshadow="false"
     inkscape:snap-bbox="true"
     inkscape:bbox-paths="true"
     inkscape:bbox-nodes="true"
     inkscape:snap-bbox-edge-midpoints="true"
     inkscape:snap-bbox-midpoints="true"
     inkscape:object-paths="true"
     inkscape:snap-intersection-paths="true"
     inkscape:snap-smooth-nodes="true"
     inkscape:snap-midpoints="true"
     inkscape:snap-object-midpoints="true"
     inkscape:snap-center="true"
     inkscape:snap-text-baseline="true"
     inkscape:snap-page="true"
     showborder="true"
     showguides="false"
     inkscape:guide-bbox="true"
     inkscape:window-width="1920"
     inkscape:window-height="991"
     inkscape:window-x="-9"
     inkscape:window-y="-9"
     inkscape:window-maximized="1"
     inkscape:snap-global="false">
    <sodipodi:guide
       position="105,214.64583"
       orientation="0,-1"
       id="guide834" />
    <sodipodi:guide
       position="105,82.354159"
       orientation="0,-1"
       id="guide836" />
    <sodipodi:guide
       position="105,188.1875"
       orientation="0,-1"
       id="guide838" />
    <sodipodi:guide
       position="105,108.8125"
       orientation="0,-1"
       id="guide840" />
    <sodipodi:guide
       position="105,148.5"
       orientation="0,-1"
       id="guide850" />
    <sodipodi:guide
       position="205.83446,210.04012"
       orientation="1,0"
       id="guide859" />
  </sodipodi:namedview>
  <metadata
     id="metadata5">
    <rdf:RDF>
      <cc:Work
         rdf:about="">
        <dc:format>image/svg+xml</dc:format>
        <dc:type
           rdf:resource="http://purl.org/dc/dcmitype/StillImage" />
        <dc:title></dc:title>
      </cc:Work>
    </rdf:RDF>
  </metadata>
  <g
     inkscape:label="Layer 1"
     inkscape:groupmode="layer"
     id="layer1">
    <g
       id="g990"
       transform="translate(-32.766624,-82.354081)">
      <path
         id="rect955"
         style="fill:#5a5da1;fill-opacity:1;stroke-width:5.54858;stroke-linecap:round;paint-order:stroke fill markers"
         d="m 98.786878,82.354146 a 66.145835,66.145835 0 0 0 -66.020261,66.145834 66.145835,66.145835 0 0 0 66.145831,66.14583 66.145835,66.145835 0 0 0 66.145832,-66.14583 66.145835,66.145835 0 0 0 -66.145832,-66.145834 66.145835,66.145835 0 0 0 -0.12557,0 z m 0.12557,26.458334 a 39.6875,39.6875 0 0 1 39.687502,39.6875 39.6875,39.6875 0 0 1 -39.687502,39.6875 39.6875,39.6875 0 0 1 -39.687498,-39.6875 39.6875,39.6875 0 0 1 39.687498,-39.6875 z" />
      <path
         id="rect957"
         style="fill:#5a5da1;fill-opacity:1;stroke-width:5.57554;stroke-linecap:round;paint-order:stroke fill markers"
         d="m 191.50268,82.354146 a 13.229163,13.229162 0 0 0 -13.21521,13.229167 13.229163,13.229162 0 0 0 0,0.01395 V 201.41664 c 0,7.32896 5.90021,13.22917 13.22916,13.22917 h 13.22917 v -13.22917 -52.91666 a 39.6875,39.6875 0 0 1 39.6875,-39.6875 39.6875,39.6875 0 0 1 39.68749,39.6875 v 52.9146 a 13.229158,13.229158 0 0 0 0,0.002 13.229158,13.229158 0 0 0 13.22917,13.22917 h 13.22916 V 201.4306 a 13.229158,13.229158 0 0 0 0,-0.014 V 148.49998 A 66.145835,66.145835 0 0 0 244.55887,82.354146 h -0.25115 a 66.145835,66.145835 0 0 0 -39.56192,13.229167 13.229163,13.229162 0 0 0 0,-0.01395 V 82.354146 h -13.22917 a 13.229163,13.229162 0 0 0 -0.014,0 z" />
      <path
         id="rect959"
         style="fill:#5a5da1;fill-opacity:1;stroke-width:5.45904;stroke-linecap:round;paint-order:stroke fill markers"
         d="m 337.03746,82.354146 c -7.32896,0 -13.22916,5.900206 -13.22916,13.229167 V 201.41561 a 13.229167,13.22916 0 0 0 0,0.001 13.229167,13.22916 0 0 0 13.22916,13.22917 h 0.0134 13.21573 v -13.22917 a 66.145835,66.145835 0 0 0 39.56193,13.22917 h 0.25114 a 66.145835,66.145835 0 0 0 66.02026,-66.14583 V 95.583313 a 13.229164,13.229164 0 0 0 0,-0.01395 V 82.354146 h -13.22917 a 13.229164,13.229164 0 0 0 -13.22916,13.229167 13.229164,13.229164 0 0 0 0,0.0026 13.229164,13.229164 0 0 0 0,0.01137 V 148.5 A 39.6875,39.6875 0 0 1 389.95409,188.1875 39.6875,39.6875 0 0 1 350.26659,148.5 V 95.583313 82.354146 Z" />
      <path
         id="rect961"
         style="fill:#5a5da1;fill-opacity:1;stroke-width:5.47097;stroke-linecap:round;paint-order:stroke fill markers"
         d="m 482.54433,82.354146 a 13.229163,13.229163 0 0 0 -13.21522,13.228648 13.229163,13.229163 0 0 0 0,5.19e-4 13.229163,13.229163 0 0 0 0,0.01395 v 52.902717 105.83333 10e-4 a 13.229164,13.229164 0 0 0 13.22916,13.22815 h 0.014 13.2152 v -13.22918 a 13.229164,13.229164 0 0 0 0,-0.014 v -52.90272 a 66.145835,66.145835 0 0 0 39.6875,13.22917 66.145835,66.145835 0 0 0 66.14583,-66.14583 66.145835,66.145835 0 0 0 -66.14583,-66.145835 66.145835,66.145835 0 0 0 -0.12557,0 66.145835,66.145835 0 0 0 -39.56193,13.229167 13.229163,13.229163 0 0 0 0,-0.01395 V 82.354146 H 482.5583 a 13.229163,13.229163 0 0 0 -0.0139,0 z m 52.93061,26.458334 a 39.6875,39.6875 0 0 1 39.6875,39.6875 39.6875,39.6875 0 0 1 -39.6875,39.6875 39.6875,39.6875 0 0 1 -39.6875,-39.6875 39.6875,39.6875 0 0 1 39.6875,-39.6875 z" />
    </g>
  </g>
</svg>
